<svg width="20" height="20" viewBox="0 0 20 20" fill="none" xmlns="http://www.w3.org/2000/svg">
<path id="Vector" d="M10 11.4286C6.60132 11.4286 3.84615 8.8702 3.84615 5.71429C3.84615 2.55837 6.60132 0 10 0C13.3987 0 16.1538 2.55837 16.1538 5.71429C16.1538 8.8702 13.3987 11.4286 10 11.4286ZM10 10C12.549 10 14.6154 8.08122 14.6154 5.71429C14.6154 3.34735 12.549 1.42857 10 1.42857C7.45099 1.42857 5.38462 3.34735 5.38462 5.71429C5.38462 8.08122 7.45099 10 10 10ZM0 20V18.0357C0 15.5669 2.15248 13.5714 4.80769 13.5714H15.1923C17.8475 13.5714 20 15.5669 20 18.0357V20C19.1503 20 18.4615 19.3614 18.4615 18.5714V18.0357C18.4615 16.3546 16.9979 14.9977 15.1923 15H4.80769C3.00215 14.9977 1.53846 16.3546 1.53846 18.0357V18.5714C1.53846 19.3511 0.849669 19.9896 0 20Z" fill="white"/>
</svg>
