<svg width="66" height="44" viewBox="0 0 66 44" fill="none" xmlns="http://www.w3.org/2000/svg">
<g id="Artboard">
<g id="truck-moving">
<g id="Mask group">
<mask id="mask0_371_136" style="mask-type:luminance" maskUnits="userSpaceOnUse" x="0" y="0" width="66" height="44">
<g id="Group">
<path id="Vector" d="M64.0716 16.7979L58.0387 11.1275C56.8012 9.96439 55.1203 9.31496 53.3672 9.31496H47.85V3.10175C47.85 1.3861 46.3753 0 44.55 0H3.3C1.47469 0 0 1.3861 0 3.10175V35.6702C0 39.9545 3.69187 43.4246 8.25 43.4246C10.9622 43.4246 13.3444 42.1742 14.85 40.284C16.3556 42.1839 18.7378 43.4246 21.45 43.4246C26.0081 43.4246 29.7 39.9545 29.7 35.6702C29.7 35.1371 29.6381 34.6233 29.535 34.1193H46.365C46.2516 34.6233 46.2 35.1371 46.2 35.6702C46.2 39.9545 49.8919 43.4246 54.45 43.4246C59.0081 43.4246 62.7 39.9545 62.7 35.6702C62.7 35.1371 62.6381 34.6233 62.535 34.1193H64.35C65.2575 34.1193 66 33.4214 66 32.5684V21.1792C66 19.5314 65.3091 17.9611 64.0716 16.7979ZM53.3672 12.407C54.2437 12.407 55.0791 12.7269 55.6978 13.3182L61.3284 18.6105H47.85V12.407H53.3672ZM8.25 40.3228C5.51719 40.3228 3.3 38.2388 3.3 35.6702C3.3 33.1015 5.51719 31.0175 8.25 31.0175C10.9828 31.0175 13.2 33.1015 13.2 35.6702C13.2 38.2388 10.9828 40.3228 8.25 40.3228ZM21.45 40.3228C18.7172 40.3228 16.5 38.2388 16.5 35.6702C16.5 33.1015 18.7172 31.0175 21.45 31.0175C24.1828 31.0175 26.4 33.1015 26.4 35.6702C26.4 38.2388 24.1828 40.3228 21.45 40.3228ZM44.55 31.0175H28.0088C26.5031 29.1468 24.1416 27.9158 21.45 27.9158C18.7584 27.9158 16.3969 29.1468 14.8912 31.0175H14.8191C14.8191 31.0175 14.8191 31.0272 14.8294 31.0272C13.3134 29.1468 10.9416 27.9158 8.25 27.9158C6.38344 27.9158 4.68188 28.5168 3.3 29.5054V3.10175H44.55V31.0175ZM54.45 40.3228C51.7172 40.3228 49.5 38.2388 49.5 35.6702C49.5 33.1015 51.7172 31.0175 54.45 31.0175C57.1828 31.0175 59.4 33.1015 59.4 35.6702C59.4 38.2388 57.1828 40.3228 54.45 40.3228ZM62.7 31.0175H61.0087C59.5031 29.1468 57.1416 27.9158 54.45 27.9158C51.7584 27.9158 49.3969 29.1468 47.8913 31.0175H47.85V21.7123H62.7V31.0175Z" fill="white"/>
</g>
</mask>
<g mask="url(#mask0_371_136)">
<g id="grey/900(dark)">
<g id="base">
<g id="Group_2">
<path id="Rectangle-path" d="M66 -8.82812H0V52.2526H66V-8.82812Z" fill="white"/>
</g>
</g>
</g>
</g>
</g>
</g>
</g>
</svg>
