<svg width="14" height="17" viewBox="0 0 14 17" fill="none" xmlns="http://www.w3.org/2000/svg">
<g id="bag-shopping-solid 1" clip-path="url(#clip0_215_52)">
<path id="Vector" d="M5 4C5 2.89687 5.89687 2 7 2C8.10312 2 9 2.89687 9 4V5.5H5V4ZM3.5 5.5H1.5C0.671875 5.5 0 6.17188 0 7V13.5C0 15.1562 1.34375 16.5 3 16.5H11C12.6562 16.5 14 15.1562 14 13.5V7C14 6.17188 13.3281 5.5 12.5 5.5H10.5V4C10.5 2.06562 8.93437 0.5 7 0.5C5.06563 0.5 3.5 2.06562 3.5 4V5.5ZM4.25 7C4.44891 7 4.63968 7.07902 4.78033 7.21967C4.92098 7.36032 5 7.55109 5 7.75C5 7.94891 4.92098 8.13968 4.78033 8.28033C4.63968 8.42098 4.44891 8.5 4.25 8.5C4.05109 8.5 3.86032 8.42098 3.71967 8.28033C3.57902 8.13968 3.5 7.94891 3.5 7.75C3.5 7.55109 3.57902 7.36032 3.71967 7.21967C3.86032 7.07902 4.05109 7 4.25 7ZM9 7.75C9 7.55109 9.07902 7.36032 9.21967 7.21967C9.36032 7.07902 9.55109 7 9.75 7C9.94891 7 10.1397 7.07902 10.2803 7.21967C10.421 7.36032 10.5 7.55109 10.5 7.75C10.5 7.94891 10.421 8.13968 10.2803 8.28033C10.1397 8.42098 9.94891 8.5 9.75 8.5C9.55109 8.5 9.36032 8.42098 9.21967 8.28033C9.07902 8.13968 9 7.94891 9 7.75Z" fill="white"/>
</g>
<defs>
<clipPath id="clip0_215_52">
<rect width="14" height="16" fill="white" transform="translate(0 0.5)"/>
</clipPath>
</defs>
</svg>
