<svg width="72" height="72" viewBox="0 0 72 72" fill="none" xmlns="http://www.w3.org/2000/svg">
<g id="e5878a0a23f0c8b05878dac1e0293dfd 2">
<g id="Group">
<path id="Vector" d="M35.939 28.2341C40.0861 28.2341 43.448 24.8722 43.448 20.7251C43.448 16.578 40.0861 13.2161 35.939 13.2161C31.7919 13.2161 28.43 16.578 28.43 20.7251C28.43 24.8722 31.7919 28.2341 35.939 28.2341Z" stroke="white" stroke-width="2" stroke-linejoin="round"/>
<path id="Vector_2" fill-rule="evenodd" clip-rule="evenodd" d="M35.9387 4C26.7227 4 19.2134 11.424 19.2134 20.7253C19.2134 37.1947 35.9387 52.4693 35.9387 52.4693C35.9387 52.4693 52.6641 37.1947 52.6641 20.7253C52.6641 11.424 45.1547 4 35.9387 4Z" stroke="white" stroke-width="4" stroke-linejoin="round"/>
<path id="Vector_3" d="M68.8774 64.6719L61.6241 39.0719C61.3681 38.1332 60.5147 37.5359 59.5761 37.5359H54.7974C54.1147 38.9866 53.3467 40.4372 52.4934 41.8026H57.9547L64.0134 63.1359H7.94941L14.0081 41.8026H19.2987C18.5307 40.4372 17.7627 38.9866 16.9947 37.5359H12.3867C11.4481 37.5359 10.5947 38.1332 10.3387 39.0719L3.08541 64.6719C2.91474 65.3546 3.00008 66.0372 3.42674 66.5492C3.85341 67.0612 4.45074 67.4026 5.13341 67.4026H66.8294C67.5121 67.4026 68.1094 67.0612 68.5361 66.5492C68.9627 66.0372 69.0481 65.3546 68.8774 64.6719Z" fill="white"/>
</g>
</g>
</svg>
