<svg width="16" height="16" viewBox="0 0 16 16" fill="none" xmlns="http://www.w3.org/2000/svg">
<g id="icons8-google 1">
<path id="Vector" d="M14.537 6.6945H14V6.66683H8.00004V9.3335H11.7677C11.218 10.8858 9.74104 12.0002 8.00004 12.0002C5.79104 12.0002 4.00004 10.2092 4.00004 8.00016C4.00004 5.79116 5.79104 4.00016 8.00004 4.00016C9.01971 4.00016 9.94737 4.38483 10.6537 5.01316L12.5394 3.1275C11.3487 2.01783 9.75604 1.3335 8.00004 1.3335C4.31837 1.3335 1.33337 4.3185 1.33337 8.00016C1.33337 11.6818 4.31837 14.6668 8.00004 14.6668C11.6817 14.6668 14.6667 11.6818 14.6667 8.00016C14.6667 7.55316 14.6207 7.11683 14.537 6.6945Z" fill="#FFC107"/>
<path id="Vector_2" d="M2.10205 4.89716L4.29238 6.5035C4.88505 5.03616 6.32038 4.00016 8.00005 4.00016C9.01972 4.00016 9.94738 4.38483 10.6537 5.01316L12.5394 3.1275C11.3487 2.01783 9.75605 1.3335 8.00005 1.3335C5.43938 1.3335 3.21872 2.77916 2.10205 4.89716Z" fill="#FF3D00"/>
<path id="Vector_3" d="M7.99994 14.6669C9.72194 14.6669 11.2866 14.0079 12.4696 12.9362L10.4063 11.1902C9.73694 11.6972 8.90494 12.0002 7.99994 12.0002C6.26594 12.0002 4.79361 10.8946 4.23894 9.35156L2.06494 11.0266C3.16827 13.1856 5.40894 14.6669 7.99994 14.6669Z" fill="#4CAF50"/>
<path id="Vector_4" d="M14.537 6.69417H14V6.6665H8V9.33317H11.7677C11.5037 10.0788 11.024 10.7218 10.4053 11.1902L10.4063 11.1895L12.4697 12.9355C12.3237 13.0682 14.6667 11.3332 14.6667 7.99984C14.6667 7.55284 14.6207 7.1165 14.537 6.69417Z" fill="#1976D2"/>
</g>
</svg>
