<svg width="52" height="52" viewBox="0 0 52 52" fill="none" xmlns="http://www.w3.org/2000/svg">
<g id="comment-alt-smile 1">
<g id="Artboard">
<g id="comment-alt-smile">
<g id="Mask group">
<mask id="mask0_371_154" style="mask-type:luminance" maskUnits="userSpaceOnUse" x="4" y="4" width="44" height="44">
<g id="Group">
<path id="Vector" d="M42.25 4.33325H9.75004C6.76241 4.33325 4.33337 6.76229 4.33337 9.74992V34.1249C4.33337 37.1125 6.76241 39.5416 9.75004 39.5416H17.875V46.651C17.875 47.2519 18.3659 47.6666 18.8907 47.6666C19.0938 47.6666 19.3054 47.6073 19.4916 47.4635L30.0625 39.5416H42.25C45.2377 39.5416 47.6667 37.1125 47.6667 34.1249V9.74992C47.6667 6.76229 45.2377 4.33325 42.25 4.33325ZM44.9584 34.1249C44.9584 35.6145 43.7396 36.8332 42.25 36.8332H29.1569L28.4375 37.3749L20.5834 43.2655V36.8332H9.75004C8.26046 36.8332 7.04171 35.6145 7.04171 34.1249V9.74992C7.04171 8.26033 8.26046 7.04159 9.75004 7.04159H42.25C43.7396 7.04159 44.9584 8.26033 44.9584 9.74992V34.1249ZM32.4154 24.4172C30.8243 26.2877 28.4883 27.3541 26 27.3541C23.5118 27.3541 21.1758 26.2877 19.5847 24.4257C19.1023 23.8586 18.2474 23.7994 17.6804 24.2734C17.1049 24.7642 17.0456 25.6106 17.528 26.1861C19.627 28.649 22.7162 30.0624 26 30.0624C29.2839 30.0624 32.3731 28.649 34.4805 26.1777C34.9714 25.6106 34.8952 24.7558 34.3282 24.2649C33.7611 23.7825 32.9063 23.8502 32.4154 24.4172ZM20.5834 19.9062C21.709 19.9062 22.6146 19.0006 22.6146 17.8749C22.6146 16.7493 21.709 15.8437 20.5834 15.8437C19.4577 15.8437 18.5521 16.7493 18.5521 17.8749C18.5521 19.0006 19.4577 19.9062 20.5834 19.9062ZM31.4167 19.9062C32.5424 19.9062 33.448 19.0006 33.448 17.8749C33.448 16.7493 32.5424 15.8437 31.4167 15.8437C30.2911 15.8437 29.3855 16.7493 29.3855 17.8749C29.3855 19.0006 30.2911 19.9062 31.4167 19.9062Z" fill="white"/>
</g>
</mask>
<g mask="url(#mask0_371_154)">
<g id="grey/900(dark)">
<path id="base" d="M47.6667 4.33325H4.33337V47.6666H47.6667V4.33325Z" fill="white"/>
</g>
</g>
</g>
</g>
</g>
</g>
</svg>
