<svg width="46" height="34" viewBox="0 0 46 34" fill="none" xmlns="http://www.w3.org/2000/svg">
<g id="Artboard">
<g id="credit-card">
<g id="Mask group">
<mask id="mask0_371_145" style="mask-type:luminance" maskUnits="userSpaceOnUse" x="0" y="0" width="46" height="34">
<g id="Group">
<path id="Vector" d="M41.9048 0H3.80952C1.70635 0 0 1.60408 0 3.5812V29.8434C0 31.8205 1.70635 33.4246 3.80952 33.4246H41.9048C44.0079 33.4246 45.7143 31.8205 45.7143 29.8434V3.5812C45.7143 1.60408 44.0079 0 41.9048 0ZM3.80952 2.38747H41.9048C42.6032 2.38747 43.1746 2.92465 43.1746 3.5812V7.16241H2.53968V3.5812C2.53968 2.92465 3.11111 2.38747 3.80952 2.38747ZM41.9048 31.0371H3.80952C3.11111 31.0371 2.53968 30.4999 2.53968 29.8434V14.3248H43.1746V29.8434C43.1746 30.4999 42.6032 31.0371 41.9048 31.0371ZM15.2381 24.77V25.3669C15.2381 25.8593 14.8095 26.2622 14.2857 26.2622H8.57143C8.04762 26.2622 7.61905 25.8593 7.61905 25.3669V24.77C7.61905 24.2776 8.04762 23.8747 8.57143 23.8747H14.2857C14.8095 23.8747 15.2381 24.2776 15.2381 24.77ZM30.4762 24.77V25.3669C30.4762 25.8593 30.0476 26.2622 29.5238 26.2622H18.7302C18.2063 26.2622 17.7778 25.8593 17.7778 25.3669V24.77C17.7778 24.2776 18.2063 23.8747 18.7302 23.8747H29.5238C30.0476 23.8747 30.4762 24.2776 30.4762 24.77Z" fill="white"/>
</g>
</mask>
<g mask="url(#mask0_371_145)">
<g id="grey/900(dark)">
<g id="base">
<g id="Group_2">
<path id="Rectangle-path" d="M45.7143 -3.66089H0V37.0852H45.7143V-3.66089Z" fill="white"/>
</g>
</g>
</g>
</g>
</g>
</g>
</g>
</svg>
