<svg width="20" height="20" viewBox="0 0 20 20" fill="none" xmlns="http://www.w3.org/2000/svg">
<g id="download 1" clip-path="url(#clip0_215_48)">
<path id="Vector" d="M13.1434 14.0468C10.4424 16.3014 6.41893 16.1612 3.88377 13.6261C1.19968 10.942 1.2003 6.58961 3.88516 3.90475C6.57001 1.2199 10.9224 1.21928 13.6065 3.90337C16.1416 6.43853 16.2818 10.462 14.0272 13.1629L18.1102 17.2459C17.622 17.734 16.8307 17.7341 16.3426 17.2461L13.1434 14.0468ZM12.7336 12.7532C14.9303 10.5565 14.9303 6.99491 12.7336 4.79821C10.5369 2.60152 6.97532 2.60152 4.77862 4.79821C2.58192 6.99491 2.58192 10.5565 4.77862 12.7532C6.97532 14.9499 10.5369 14.9499 12.7336 12.7532Z" fill="white"/>
</g>
<defs>
<clipPath id="clip0_215_48">
<rect width="20" height="20" fill="white"/>
</clipPath>
</defs>
</svg>
