<svg width="72" height="72" viewBox="0 0 72 72" fill="none" xmlns="http://www.w3.org/2000/svg">
<g id="60ff58dae8a3fffc6a6e292ce587ca46 1">
<g id="Group">
<path id="Vector" d="M59 31C59 18.297 48.703 8 36 8C23.297 8 13 18.297 13 31" stroke="white" stroke-width="4"/>
<path id="Vector_2" d="M43 64.996C48.523 64.996 53 60.519 53 54.996V52" stroke="white" stroke-width="2" stroke-linecap="round" stroke-linejoin="round"/>
<path id="Vector_3" fill-rule="evenodd" clip-rule="evenodd" d="M18 53V29H14.667C9.825 29 6 32.347 6 36.333V45.667C6 49.653 9.825 53 14.667 53H18ZM54 53V29H57.333C62.175 29 66 32.347 66 36.333V45.667C66 49.653 62.175 53 57.333 53H54Z" stroke="white" stroke-width="4"/>
</g>
</g>
</svg>
